<?xml version="1.0" encoding="utf-8"?>
<!-- Generator: Adobe Illustrator 24.0.1, SVG Export Plug-In . SVG Version: 6.00 Build 0)  -->
<svg version="1.1" id="Слой_1" xmlns="http://www.w3.org/2000/svg" xmlns:xlink="http://www.w3.org/1999/xlink" x="0px" y="0px"
	 viewBox="0 0 160 160" style="enable-background:new 0 0 160 160;" xml:space="preserve">
<style type="text/css">
	.st0{fill:#763F98;}
	.st1{fill:#764099;}
	.st2{fill:#764199;}
	.st3{fill:#4F4D4E;}
</style>
<g>
	<g>
		<path class="st0" d="M80.4,63l-1.9,4.6c-1,2.6-1.6,5.4-1.6,8.2V96c0,2.2,1.8,4,4,4h4c2.2,0,4-1.8,4-4v-0.4l9.3-2.2
			c4.5-1.1,7.7-5.1,7.7-9.7v-8.5c0-3.3-1.6-6.4-4.3-8.2l-7.9-5.5C93.3,61.2,93,60.6,93,60s0.3-1.2,0.8-1.5l7.9-5.5
			c2.7-1.9,4.3-4.9,4.3-8.2v-8.5c0-4.7-3.2-8.7-7.7-9.7L89,24.4V24c0-2.2-1.8-4-4-4h-4c-2.2,0-4,1.8-4,4v20.1c0,2.8,0.5,5.6,1.6,8.2
			l1.9,4.6c0.4,1,0.6,2,0.6,3v0.1C81,61.1,80.8,62.1,80.4,63z M84.1,55.5l-1.9-4.6c-0.9-2.1-1.3-4.4-1.3-6.7V24h4v2
			c0,0.9,0.6,1.7,1.5,1.9l10.8,2.5c2.7,0.6,4.6,3,4.6,5.8v8.5c0,2-1,3.8-2.6,4.9l-7.9,5.5C89.9,56.3,89,58.1,89,60s0.9,3.7,2.5,4.8
			l7.9,5.5c1.6,1.1,2.6,3,2.6,4.9v8.5c0,2.8-1.9,5.2-4.6,5.8l-10.8,2.5c-0.9,0.2-1.5,1-1.5,1.9v2h-4V75.9c0-2.3,0.4-4.6,1.3-6.7
			l1.9-4.6c0.6-1.4,0.9-2.9,0.9-4.5v-0.1C85,58.4,84.7,56.9,84.1,55.5z"/>
		<path class="st1" d="M66,130c0,3.3-2.7,6-6,6s-6-2.7-6-6s2.7-6,6-6h-8c-1.3,1.7-2,3.7-2,6c0,5.5,4.5,10,10,10s10-4.5,10-10
			c0-2.3-0.8-4.3-2-6h-8C63.3,124,66,126.7,66,130z"/>
		<path class="st2" d="M111,130c0,3.3-2.7,6-6,6s-6-2.7-6-6s2.7-6,6-6h-8c-1.3,1.7-2,3.7-2,6c0,5.5,4.5,10,10,10s10-4.5,10-10
			c0-2.3-0.8-4.3-2-6h-8C108.3,124,111,126.7,111,130z"/>
	</g>
	<path class="st3" d="M137,58h-36c-1.1,0-2,0.9-2,2s0.9,2,2,2h36l-4.9,12H111c-1.1,0-2,0.9-2,2s0.9,2,2,2h19.5l-4.9,12H109
		c-1.1,0-2,0.9-2,2s0.9,2,2,2h15l-3.3,8c-1.2,3-4.1,5-7.4,5H50V94h22c1.1,0,2-0.9,2-2s-0.9-2-2-2H50V78h22c1.1,0,2-0.9,2-2
		s-0.9-2-2-2H50V62h25c1.1,0,2-0.9,2-2s-0.9-2-2-2H50V46c0-2.8-2.2-5-5-5h-4v-1c0-2.2-1.8-4-4-4H23c-2.2,0-4,1.8-4,4v6
		c0,2.2,1.8,4,4,4h14c2.2,0,4-1.8,4-4v-1h4c0.6,0,1,0.4,1,1v14v47.1c-4,0.7-7,4.2-7,8.4c0,4.7,3.8,8.5,8.5,8.5H52h8h8h29h8h8h10
		c1.1,0,2-0.9,2-2s-0.9-2-2-2H47.5c-2.5,0-4.5-2-4.5-4.5s2-4.5,4.5-4.5H48h65.3c4.9,0,9.3-2.9,11.1-7.5l4.4-10.8c0,0,0,0,0,0l6.5-16
		c0,0,0,0,0,0l5.4-13.3c0.3-0.6,0.3-1,0.3-1.5C141,59.8,139.3,58,137,58L137,58z M23,46v-6h14l0,3c0,0,0,0,0,0s0,0,0,0l0,3H23z"/>
</g>
</svg>
