<svg id="Layer_2" viewBox="0 0 512 512" xmlns="http://www.w3.org/2000/svg" data-name="Layer 2"><g id="Icon"><g id="_04" data-name="04"><g id="Body"><circle cx="256" cy="256" fill="#ffda24" r="256"/><path d="m512 256c0 141.38-114.62 256-256 256s-256-114.62-256-256c0-10.15.59-20.16 1.74-30 14.85 127.24 123.03 226 254.26 226s239.41-98.76 254.26-226c1.15 9.84 1.74 19.85 1.74 30z" fill="#ffc024"/></g><g id="Mouth"><path d="m156.22 257.39h199.57c15.3 0 27.72 12.42 27.72 27.72v.49c0 70.1-56.91 127.01-127.01 127.01h-.49c-70.37 0-127.5-57.13-127.5-127.5 0-15.3 12.42-27.72 27.72-27.72z" fill="#473535"/><path d="m334.8 385.61c-21.58 16.91-48.76 27-78.31 27h-.49c-29.69 0-57-10.14-78.67-27.16 17.79-24.1 46.41-39.74 78.67-39.74s61.01 15.7 78.8 39.9z" fill="#ff7e27"/><path d="m369.64 261.11v7.37c0 18.36-14.89 33.26-33.26 33.26h-160.76c-18.37 0-33.26-14.9-33.26-33.26v-7.37c4.08-2.36 8.81-3.71 13.86-3.71h199.57c5.04 0 9.78 1.35 13.86 3.71z" fill="#fff"/></g><path d="m486 86.9v19.83c0 3.97-1.71 7.72-4.62 10.45-3.91 3.66-9.08 10.22-10.22 19.83-1.67 14.13-15.71 91.97-89.31 91.97s-96.4-57.08-99.38-75.55c-3.2-19.84-13.64-22.25-26.47-22.25s-23.27 2.41-26.47 22.25c-2.97 18.47-23.14 75.55-99.38 75.55s-87.64-77.84-89.31-91.97c-1.14-9.6-6.32-16.17-10.22-19.83-2.91-2.73-4.62-6.48-4.62-10.45v-19.83c0-5.86 3.66-11.01 9.08-13.2 136.48-55.12 191.94 14.96 191.94 14.96 6.67-4.73 28.97-4.95 28.97-4.95s22.31.22 28.97 4.95c0 0 55.46-70.08 191.94-14.96 5.43 2.18 9.08 7.34 9.08 13.2z" fill="#473535"/></g></g></svg>