<svg id="Layer_1" height="512" viewBox="0 0 512 512" width="512" xmlns="http://www.w3.org/2000/svg" data-name="Layer 1"><g fill-rule="evenodd"><path d="m256 0c-141.162 0-256 114.843-256 256s114.838 256 256 256 256-114.838 256-256-114.843-256-256-256z" fill="#ffd93b"/><path d="m385.709 348.613a154.029 154.029 0 0 1 -259.418 0 16 16 0 1 1 26.93-17.283 122.032 122.032 0 0 0 205.558 0 16 16 0 1 1 26.93 17.283z"/><path d="m116.883 262.933h59.148a63.268 63.268 0 0 0 63.111-63.121v-47.1h33.716v47.1a63.269 63.269 0 0 0 63.111 63.121h59.153a63.292 63.292 0 0 0 62.951-58.609v-58.684a25.081 25.081 0 0 0 -23.754-25.046q-.57-.025-1.148-.026h-354.342q-.577 0-1.149.028a25.078 25.078 0 0 0 -23.753 25.044v58.675a63.291 63.291 0 0 0 62.956 58.618z"/></g></svg>