<svg id="Icons" height="512" viewBox="0 0 60 60" width="512" xmlns="http://www.w3.org/2000/svg"><path d="m59 33.724c0 16.016-12.984 23.276-29 23.276s-29-7.26-29-23.276c0-17.69 12.984-30.724 29-30.724s29 13.034 29 30.724z" fill="#f4b925"/><path d="m48.85 52.46c-5.07 3.07-11.65 4.54-18.85 4.54-16.02 0-29-7.26-29-23.28a32.267 32.267 0 0 1 4.91-17.43 34.759 34.759 0 0 0 -2.91 14.14c0 16.91 13.71 24.57 30.61 24.57a43.048 43.048 0 0 0 15.24-2.54z" fill="#db932a"/><path d="m28 47a1 1 0 0 1 0-2c5.812 0 8.53-2.78 9.225-3.632a1 1 0 1 1 1.55 1.264c-.836 1.024-4.082 4.368-10.775 4.368z" fill="#845523"/><path d="m30 23a2.373 2.373 0 0 0 -2.314 1.838c-.831 3.585-3.761 11.162-13.686 11.162h-3a7 7 0 0 1 -7-7c0-4.1-1.4-5.867-2.29-6.573a1.852 1.852 0 0 1 -.71-1.45v-2.609a1.844 1.844 0 0 1 1.341-1.774 39.759 39.759 0 0 1 10.659-1.594c11 0 11 3 17 3s6-3 17-3a39.759 39.759 0 0 1 10.659 1.594 1.844 1.844 0 0 1 1.341 1.774v2.609a1.852 1.852 0 0 1 -.71 1.45c-.89.706-2.29 2.473-2.29 6.573a7 7 0 0 1 -7 7h-3c-9.925 0-12.855-7.577-13.686-11.162a2.373 2.373 0 0 0 -2.314-1.838z" fill="#262633"/><g fill="#4d4d60"><path d="m9 23a1 1 0 0 1 -.707-1.707l2-2a1 1 0 0 1 1.414 1.414l-2 2a1 1 0 0 1 -.707.293z"/><path d="m10 28a1 1 0 0 1 -.707-1.707l7-7a1 1 0 0 1 1.414 1.414l-7 7a1 1 0 0 1 -.707.293z"/><path d="m38 23a1 1 0 0 1 -.707-1.707l2-2a1 1 0 0 1 1.414 1.414l-2 2a1 1 0 0 1 -.707.293z"/><path d="m39 28a1 1 0 0 1 -.707-1.707l7-7a1 1 0 0 1 1.414 1.414l-7 7a1 1 0 0 1 -.707.293z"/></g></svg>