<?xml version="1.0" encoding="utf-8"?>
<!-- Generator: Adobe Illustrator 24.0.1, SVG Export Plug-In . SVG Version: 6.00 Build 0)  -->
<svg version="1.1" id="Layer_1" xmlns="http://www.w3.org/2000/svg" xmlns:xlink="http://www.w3.org/1999/xlink" x="0px" y="0px"
	 viewBox="0 0 512 512" style="enable-background:new 0 0 512 512;" xml:space="preserve">
<style type="text/css">
	.st0{fill:#FFFFFF;}
</style>
<g>
	<path class="st0" d="M496,184h-80h-64h-80c-4.8,0-8,3.2-8,8v53.6l-20-4.8l-21.6-21.6c24-22.4,25.6-69.6,25.6-83.2
		c29.6,0,50.4-8,58.4-22.4c3.2-6.4,5.6-16.8-3.2-30.4C294.4,70.4,283.2,64,268,64c-0.8,0-28.8,0-28.8,0c-2.4-14.4-12-44.8-49.6-53.6
		C181.6,8.8,170.4,8,168,8C84.8,8,72,48,72,72v40c0,5.6,2.4,12,7.2,16.8c-4,4.8-7.2,12.8-7.2,23.2c0,20,13.6,28.8,25.6,31.2
		c4,12,9.6,20.8,15.2,28l-29.6,29.6c-6.4,7.2,1.6,14.4,1.6,14.4l-34.4,34.4c-3.2,4-34.4,36-34.4,62.4c0,1.6,0,2.4,0.8,3.2l40,80
		c0.8,2.4,3.2,3.2,4.8,4c0.8,0,8,2.4,18.4,2.4c0,0.8-0.8,45.6-0.8,45.6c0,4.8,3.2,8,8,8s8-3.2,8-8v-22.4c12,14.4,31.2,30.4,56,30.4
		s70.4-16,110.4-30.4c7.2-2.4,13.6-4.8,20-7.2c1.6-0.8,3.2-0.8,5.6-1.6v32c0,4.8,3.2,8,8,8s8-3.2,8-8v-36c14.4-3.2,28-4.8,40-4h56
		c13.6,0,32-4.8,37.6-19.2c1.6-4,2.4-8,2.4-12.8h56c4.8,0,8-3.2,8-8V192C504,187.2,500.8,184,496,184L496,184z M408,200v43.2
		l-20.8-10.4c-0.8-0.8-1.6-0.8-3.2-0.8s-2.4,0-3.2,0.8L360,243.2V200H408z M174.4,244c-0.8-1.6-4.8-4-4.8-4c9.6,0,17.6-1.6,25.6-4
		l-3.2,9.6l-8,20.8C184,266.4,175.2,244,174.4,244z M213.6,232.8l16.8,16.8l-8,15.2l-13.6-18.4L213.6,232.8z M228,80
		c-7.2,5.6-13.6,12.8-18.4,19.2C196,119.2,184,120,184,120h-42.4c3.2-3.2,6.4-7.2,8.8-11.2C160,94.4,177.6,80,192,80H228z
		 M289.6,92.8c4,5.6,4.8,10.4,2.4,13.6c-3.2,6.4-16.8,13.6-44,13.6h-0.8c-1.6-14.4-4-24.8-5.6-30.4C250.4,84,259.2,80,268,80
		S284,84,289.6,92.8z M88,72c0-28.8,23.2-40.8,49.6-45.6C124,40.8,120,59.2,120,72c0,4.8,3.2,8,8,8c4,0,8-3.2,8-8
		s1.6-43.2,40.8-47.2c34.4,3.2,44,27.2,46.4,39.2H192c-21.6,0-43.2,17.6-54.4,35.2C124,119.2,112,120,112,120H96c-6.4,0-8-4-8-8
		L88,72z M104,168c-2.4,0-16-0.8-16-16c0-14.4,6.4-16,8-16h88c2.4,0,20.8-0.8,38.4-27.2c1.6-2.4,3.2-4.8,5.6-7.2
		c1.6,7.2,4,19.2,4,35.2c0,0.8,3.2,44.8-20,70.4c-10.4,11.2-25.6,16.8-44,16.8c-0.8,0-42.4-0.8-56-50.4
		C110.4,170.4,107.2,168,104,168z M120.8,226.4l35.2,23.2l-21.6,27.2L99.2,248L120.8,226.4z M32,350.4c1.6-16.8,21.6-40.8,29.6-48.8
		l35.2-35.2l33.6,28c1.6,1.6,3.2,1.6,4.8,1.6h0.8c2.4,0,4-1.6,5.6-3.2l23.2-29.6l11.2,27.2c1.6,3.2,4,4.8,7.2,4.8s6.4-1.6,7.2-4.8
		l10.4-26.4l15.2,20.8c1.6,2.4,4,3.2,7.2,3.2c2.4,0,4.8-1.6,6.4-4l12.8-26.4l20,4.8v127.2c-12,4-26.4,8.8-41.6,13.6
		c-12,4-24,8-35.2,12c-13.6,4.8-29.6-0.8-36.8-13.6L117.6,348c-2.4-4-7.2-4.8-11.2-2.4s-4.8,7.2-2.4,11.2l22.4,36.8
		c-12.8,37.6-47.2,34.4-57.6,32L32,350.4z M422.4,422.4c-2.4,6.4-13.6,9.6-22.4,9.6h-55.2c-26.4-1.6-53.6,6.4-67.2,11.2
		c-6.4,2.4-13.6,4.8-20,7.2C220,463.2,174.4,480,152,480c-28,0-48-28.8-54.4-39.2c13.6-3.2,28.8-10.4,40-29.6
		c8.8,13.6,24,21.6,40,21.6c4.8,0,9.6-0.8,14.4-2.4c10.4-3.2,22.4-7.2,35.2-12c35.2-12,78.4-26.4,89.6-26.4h56c2.4,0,7.2,1.6,8,8
		H360c-4.8,0-8,3.2-8,8s3.2,8,8,8c0,0,60.8,0.8,64,0.8C424,418.4,423.2,420.8,422.4,422.4L422.4,422.4z M488,400h-91.2
		c-0.8-17.6-14.4-24-24-24h-56c-7.2,0-19.2,3.2-36.8,8V200h64v56c0,2.4,1.6,5.6,4,7.2s5.6,1.6,8,0l28.8-14.4l28.8,14.4
		c0,0.8,0.8,0.8,2.4,0.8s3.2,0,4-0.8c2.4-1.6,4-4,4-7.2v-56h64V400z"/>
	<path class="st0" d="M344,344h-32c-4.8,0-8,3.2-8,8s3.2,8,8,8h32c4.8,0,8-3.2,8-8S348.8,344,344,344z"/>
	<path class="st0" d="M312,336h16c4.8,0,8-3.2,8-8s-3.2-8-8-8h-16c-4.8,0-8,3.2-8,8S307.2,336,312,336z"/>
</g>
</svg>
