<svg id="Layer_1" enable-background="new 0 0 48 48" viewBox="0 0 48 48" xmlns="http://www.w3.org/2000/svg"><g><g><path d="m36 33.8c-5.4 0-9.8-4.4-9.8-9.8s4.4-9.8 9.8-9.8 9.8 4.4 9.8 9.8-4.4 9.8-9.8 9.8zm0-17.6c-4.3 0-7.8 3.5-7.8 7.8s3.5 7.8 7.8 7.8 7.8-3.5 7.8-7.8-3.5-7.8-7.8-7.8z" fill="rgb(0,0,0)"/></g><g><path d="m12 33.8c-5.4 0-9.8-4.4-9.8-9.8s4.4-9.8 9.8-9.8 9.8 4.4 9.8 9.8-4.3 9.8-9.8 9.8zm0-17.6c-4.3 0-7.8 3.5-7.8 7.8s3.5 7.8 7.8 7.8 7.8-3.5 7.8-7.8-3.4-7.8-7.8-7.8z" fill="rgb(0,0,0)"/></g><g><path d="m26.7 24.9c-1.9-.8-3.7-.8-5.4 0l-.8-1.8c2.2-1 4.6-1 7.1 0z" fill="rgb(0,0,0)"/></g><g><path d="m44.2 19.6h2.3v2h-2.3z" fill="rgb(0,0,0)"/></g><g><g><path d="m41.8 30.4h3.1v2h-3.1z" fill="rgb(0,0,0)" transform="matrix(-.707 -.707 .707 -.707 51.828 84.225)"/></g></g><g><g><path d="m3.6 29.8h2v3.1h-2z" fill="rgb(0,0,0)" transform="matrix(-.707 -.707 .707 -.707 -14.223 56.776)"/></g></g><g><path d="m1.5 19.6h2.3v2h-2.3z" fill="rgb(0,0,0)"/></g></g></svg>