<?xml version="1.0" encoding="utf-8"?>
<!-- Generator: Adobe Illustrator 24.0.1, SVG Export Plug-In . SVG Version: 6.00 Build 0)  -->
<svg version="1.1" id="Capa_1" xmlns="http://www.w3.org/2000/svg" xmlns:xlink="http://www.w3.org/1999/xlink" x="0px" y="0px"
	 viewBox="0 0 512 512" style="enable-background:new 0 0 512 512;" xml:space="preserve">
<style type="text/css">
	.st0{fill:#FFFFFF;}
</style>
<g>
	<path class="st0" d="M83.3,366.9c-8.2,8.3-12.8,19.2-12.8,30.9c0,11.7,4.5,22.6,12.8,30.9c8.3,8.3,19.2,12.8,30.9,12.8
		s22.6-4.5,30.9-12.8c8.3-8.3,12.8-19.2,12.8-30.9c0-11.7-4.5-22.6-12.8-30.9c-8.3-8.2-19.2-12.8-30.9-12.8S91.6,358.7,83.3,366.9z
		 M142.9,397.8c0,7.7-3,14.9-8.4,20.3c-5.4,5.4-12.6,8.4-20.3,8.4c-7.7,0-14.9-3-20.3-8.4c-5.4-5.4-8.4-12.6-8.4-20.3
		c0-7.7,3-14.9,8.4-20.3c5.4-5.4,12.6-8.4,20.3-8.4c7.7,0,14.9,3,20.3,8.4C139.9,382.9,142.9,390.1,142.9,397.8L142.9,397.8z"/>
	<path class="st0" d="M211.6,359.1c3.7,0,6.9-2.8,7.4-6.5c0.5-4.1-2.4-7.9-6.5-8.4l-30.7-4c3-4.3,4.6-9.4,4.6-14.7
		c0-6.8-2.7-13.3-7.5-18.1c-10-10-26.2-10-36.2,0l-15.3,15.3c-2.9,2.9-2.9,7.7,0,10.6l51.2,51.2c1.5,1.5,3.4,2.2,5.3,2.2
		s3.8-0.7,5.3-2.2c2.9-2.9,2.9-7.7,0-10.6l-20.2-20.2l41.4,5.3C211,359,211.3,359.1,211.6,359.1L211.6,359.1z M168.4,333l-10,10
		l-15-15l10-10c4.1-4.1,10.9-4.1,15,0c2,2,3.1,4.7,3.1,7.5C171.5,328.3,170.4,331,168.4,333L168.4,333z"/>
	<path class="st0" d="M409.2,157.8c3.8,1.7,8.2,0,9.9-3.8c1.7-3.8,0-8.2-3.8-9.9l-70.6-31.8c-2.8-1.3-6.2-0.7-8.4,1.5
		c-2.2,2.2-2.8,5.5-1.5,8.4l31.8,70.6c1.3,2.8,4,4.4,6.8,4.4c1,0,2.1-0.2,3.1-0.7c3.8-1.7,5.5-6.1,3.8-9.9l-5.7-12.7l21.9-21.9
		L409.2,157.8z M368,159.3l-11.3-25.2l25.2,11.3L368,159.3z"/>
	<path class="st0" d="M362.4,210.9c1.6-2.9,1-6.5-1.3-8.9l-51.2-51.2c-2.9-2.9-7.7-2.9-10.6,0c-2.9,2.9-2.9,7.7,0,10.6l33.4,33.4
		l-60.1-12.5c-3.3-0.7-6.6,0.9-8.1,3.8c-1.6,2.9-1,6.5,1.3,8.9l51.2,51.2c1.5,1.5,3.4,2.2,5.3,2.2s3.8-0.7,5.3-2.2
		c2.9-2.9,2.9-7.7,0-10.6l-33.4-33.4l60.1,12.5C357.5,215.4,360.8,213.9,362.4,210.9L362.4,210.9z"/>
	<path class="st0" d="M430.3,140.4c2,0,3.9-0.8,5.3-2.2l18.7-18.7c2.9-2.9,2.9-7.7,0-10.6c-2.9-2.9-7.7-2.9-10.6,0l-13.4,13.4
		l-45.9-45.9c-2.9-2.9-7.7-2.9-10.6,0c-2.9,2.9-2.9,7.7,0,10.6l51.2,51.2C426.4,139.6,428.3,140.4,430.3,140.4L430.3,140.4z"/>
	<path class="st0" d="M231.7,338.9c1.9,0,3.8-0.7,5.3-2.2c2.9-2.9,2.9-7.7,0-10.6L185.9,275c-2.9-2.9-7.7-2.9-10.6,0
		c-2.9,2.9-2.9,7.7,0,10.6l51.2,51.2C227.9,338.2,229.8,338.9,231.7,338.9z"/>
	<path class="st0" d="M301.1,269.6c1.9,0,3.8-0.7,5.3-2.2c2.9-2.9,2.9-7.7,0-10.6l-51.2-51.2c-2.9-2.9-7.7-2.9-10.6,0
		c-2.9,2.9-2.9,7.7,0,10.6l51.2,51.2C297.2,268.9,299.2,269.6,301.1,269.6z"/>
	<path class="st0" d="M271.2,302.6c5.3-5.3,8.2-12.4,8.2-19.9c0-7.5-2.9-14.6-8.2-19.9l-6.9-6.9c-2.9-2.9-7.7-2.9-10.6,0l-8.9,8.9
		c-2.9,2.9-2.9,7.7,0,10.6c2.9,2.9,7.7,2.9,10.6,0l3.6-3.6l1.6,1.6c2.5,2.5,3.8,5.8,3.8,9.3c0,3.5-1.4,6.8-3.8,9.3
		c-2.5,2.5-5.8,3.8-9.3,3.8c-3.5,0-6.8-1.4-9.3-3.8l-22-22c-2.5-2.5-3.8-5.8-3.8-9.3c0-3.5,1.4-6.8,3.8-9.3c4.2-4.2,10.7-5,15.8-2.1
		c3.6,2.1,8.2,0.8,10.2-2.8c2.1-3.6,0.8-8.2-2.8-10.2c-11-6.3-24.9-4.4-33.8,4.5c-5.3,5.3-8.2,12.4-8.2,19.9
		c0,7.5,2.9,14.6,8.2,19.9l22,22c5.3,5.3,12.4,8.2,19.9,8.2C258.8,310.8,265.9,307.9,271.2,302.6z"/>
	<path class="st0" d="M496.7,214.5c-11.8-10.9-16.3-27.8-11.5-43l4.3-13.9c1.5-4.9,0.3-10-2.9-13.5l12.9-12.9
		c4.2-4.2,6.5-9.8,6.5-15.8c0-6-2.3-11.6-6.5-15.8l-35-35c-2.9-2.9-7.7-2.9-10.6,0c-2.9,2.9-2.9,7.7,0,10.6l35,35
		c1.4,1.4,2.1,3.2,2.1,5.2c0,1.9-0.8,3.8-2.1,5.2C471.9,137.6,134.4,475.1,120.5,489c-2.8,2.8-7.5,2.8-10.3,0L23,401.8
		c-2.8-2.8-2.8-7.5,0-10.3c4.7-4.7,344.1-344.1,348.7-348.7c0,0,0,0,0,0L391.5,23c1.4-1.4,3.2-2.1,5.2-2.1c1.9,0,3.8,0.8,5.2,2.1
		l27.5,27.5c2.9,2.9,7.7,2.9,10.6,0c2.9-2.9,2.9-7.7,0-10.6l-27.5-27.5c-4.2-4.2-9.8-6.5-15.8-6.5c-6,0-11.6,2.3-15.8,6.5
		l-12.9,12.9c-3.6-3.2-8.7-4.4-13.5-2.9l-13.9,4.3c-15.3,4.8-32.2,0.3-43-11.5l-9.9-10.7c-5-5.4-13.1-6.1-18.9-1.6L257,11.8
		c-12.7,9.7-30.2,11.2-44.4,3.9l-12.9-6.7c-6.5-3.4-14.4-1.3-18.4,4.9l-7.9,12.3C164.7,39.6,148.9,47,133,44.9l-14.5-1.8
		c-7.3-0.9-14,3.8-15.6,10.9l-3.2,14.2c-3.5,15.7-15.9,28-31.5,31.5L54,103c-7.2,1.6-11.9,8.3-10.9,15.6l1.8,14.5
		c2,15.9-5.4,31.7-18.8,40.3l-12.3,7.9c-6.2,4-8.3,11.9-4.9,18.4l6.7,12.9c7.4,14.2,5.8,31.7-3.9,44.4l-8.9,11.6
		c-4.4,5.8-3.7,14,1.6,18.9l7.7,7.1c13.6,12.6,18.9,32.2,13.3,49.9l-3.1,9.9c-1.5,4.9-0.3,10,2.9,13.5l-12.9,12.9
		c-8.7,8.7-8.7,22.8,0,31.5l87.2,87.2c4.3,4.3,10.1,6.5,15.8,6.5s11.4-2.2,15.8-6.5l12.9-12.9c3.6,3.2,8.7,4.4,13.5,2.9l13.9-4.3
		c15.3-4.8,32.2-0.3,43,11.5l9.9,10.7c2.8,3,6.6,4.6,10.4,4.6c3,0,6-1,8.6-2.9l11.6-8.9c12.7-9.7,30.2-11.2,44.4-3.9l12.9,6.7
		c6.5,3.4,14.4,1.3,18.4-4.9l7.9-12.3c1.6-2.5,3.4-4.8,5.5-6.9c9.1-9.1,22.1-13.6,34.8-12l14.5,1.8c7.3,0.9,14-3.8,15.6-10.9
		l2.3-10.1c4.1-18.1,18.4-32.5,36.6-36.6L458,409c7.2-1.6,11.9-8.3,10.9-15.6l-1.8-14.5c-2-15.9,5.4-31.7,18.8-40.3l12.3-7.9
		c6.2-4,8.3-11.9,4.9-18.4l-6.7-12.9c-7.4-14.2-5.8-31.7,3.9-44.4l8.9-11.6c4.4-5.8,3.7-14-1.6-18.9L496.7,214.5z M120.5,272.7
		c-5.2-41.7,8.9-83.2,38.9-113.3c30.1-30.1,71.6-44.1,113.3-38.9L120.5,272.7z M285.8,107.5c-50-10-100.9,5.3-137,41.4
		s-51.4,87-41.4,137L92.3,301c-15.9-58.4,0.6-122,43.6-165s106.6-59.5,165-43.6L285.8,107.5z M22.4,283.6l-7.1-6.5l8.4-11
		c13.2-17.3,15.3-41,5.3-60.4l-6.3-12.2l11.6-7.5c18.3-11.8,28.3-33.3,25.6-54.9l-1.7-13.7l13.5-3c21.3-4.8,38.1-21.6,42.9-42.9
		l3-13.5l13.7,1.7c21.6,2.8,43.1-7.3,54.9-25.6l7.5-11.6l12.2,6.3c19.4,10,43.1,8,60.4-5.3l11-8.4l9.4,10.2
		c14.8,16,37.7,22.1,58.5,15.6l10.4-3.3L313,80.3c-64.3-20.8-137.2-5.4-187.7,45.1C74.9,175.8,59.5,248.7,80.3,313l-42.4,42.4l2-6.4
		C47.1,325.8,40.3,300.1,22.4,283.6z M391.5,239.3c5.2,41.7-8.9,83.2-38.9,113.3c-30.1,30.1-71.6,44.1-113.3,38.9L391.5,239.3z
		 M488.3,245.9c-13.2,17.3-15.3,41-5.3,60.4l6.3,12.2l-11.6,7.5c-18.3,11.8-28.3,33.3-25.6,54.9l1.7,13.7l-9.4,2.1
		c-23.8,5.3-42.6,24.1-47.9,47.9l-2.1,9.4l-13.7-1.7c-17.3-2.2-35,3.9-47.3,16.2c-2.8,2.8-5.4,6-7.5,9.4l-7.5,11.6l-12.2-6.3
		c-19.4-10-43.1-8-60.4,5.3l-11,8.4l-9.4-10.2c-10.9-11.8-26.2-18.2-41.8-18.2c-5.6,0-11.3,0.8-16.8,2.6l-10.4,3.3l42.4-42.4
		c12.6,4,25.6,6.8,38.8,8.1c0.2,0,0.5,0,0.7,0c3.8,0,7.1-2.9,7.5-6.8c0.4-4.1-2.6-7.8-6.7-8.2c-9.5-0.9-19-2.7-28.2-5.2l15.2-15.2
		c50,10,100.9-5.3,137-41.4c36.1-36.1,51.4-87,41.4-137l15.2-15.2c15.9,58.4-0.6,122-43.6,165c-27.6,27.6-64.3,45-103.3,48.8
		c-4.1,0.4-7.1,4.1-6.7,8.2c0.4,4.1,4.1,7.1,8.2,6.7c42.4-4.2,82.3-23,112.4-53.1c50.5-50.5,65.8-123.4,45.1-187.7l42.4-42.4
		l-3.3,10.4c-6.5,20.8-0.4,43.7,15.6,58.5l10.2,9.4L488.3,245.9z"/>
</g>
</svg>
