<?xml version="1.0" encoding="utf-8"?>
<!-- Generator: Adobe Illustrator 24.0.1, SVG Export Plug-In . SVG Version: 6.00 Build 0)  -->
<svg version="1.1" id="Layer_1" xmlns="http://www.w3.org/2000/svg" xmlns:xlink="http://www.w3.org/1999/xlink" x="0px" y="0px"
	 viewBox="0 0 512 512" style="enable-background:new 0 0 512 512;" xml:space="preserve">
<style type="text/css">
	.st0{fill:#FFFFFF;}
</style>
<g id="mobilephone-pay-money-payment-hand">
	<path class="st0" d="M152,264h112c4.4,0,8-3.6,8-8s-3.6-8-8-8H152c-4.4,0-8,3.6-8,8S147.6,264,152,264z"/>
	<path class="st0" d="M264,280h-48c-4.4,0-8,3.6-8,8s3.6,8,8,8h48c4.4,0,8-3.6,8-8S268.4,280,264,280z"/>
	<path class="st0" d="M264,312h-32c-4.4,0-8,3.6-8,8s3.6,8,8,8h32c4.4,0,8-3.6,8-8S268.4,312,264,312z"/>
	<path class="st0" d="M248,56h16c4.4,0,8-3.6,8-8s-3.6-8-8-8h-16c-4.4,0-8,3.6-8,8S243.6,56,248,56z"/>
	<path class="st0" d="M464,336c-5.8,0-11.4,1.6-16.3,4.6c-1.7-16.2-15.4-28.6-31.7-28.6c-5.6,0-11.2,1.6-16,4.5V56
		c0-22.1-17.9-40-40-40H152c-22.1,0-40,17.9-40,40v156.9l-48.2,52.3C43.3,287.4,32,316.4,32,346.6V488c0,4.4,3.6,8,8,8s8-3.6,8-8
		V346.6c-0.1-26.1,9.8-51.3,27.5-70.5l36.5-39.6V352c0,4.4,3.5,8,7.9,8.1c2.9,0,5.6-1.5,7-4.1l27.9-49c4.3-7.5,13.8-10,21.2-5.8
		c0.2,0.1,0.4,0.2,0.5,0.3c7.7,4.3,10.5,14.1,6.2,21.8c-0.1,0.1-0.1,0.2-0.2,0.3c-11.8,20.3-28,48.3-28,48.3c-1.5,2.7-1.4,6,0.3,8.6
		l10.1,14.6c15.5,22.8,16.7,52.5,3.1,76.5L161,484c-2.2,3.8-0.9,8.8,3,11c3.8,2.2,8.8,0.9,11-3l7.1-12.5c2.7-4.9,5-10.1,6.7-15.5
		h76.9l15.3,27.8c1.4,2.5,4.1,4.1,7,4.2c1.3,0,2.7-0.3,3.8-1c3.9-2.1,5.3-7,3.2-10.9l-65.8-119.5l7.1-4.1
		c11.5-6.6,26.1-2.7,32.7,8.8c0,0,0,0,0,0l20,34.6c1.8,3.1,5.5,4.6,9,3.8c3.5-0.9,5.9-4.1,5.9-7.8V264c0-8.8,7.2-16,16-16
		s16,7.2,16,16v112c0,4.4,3.6,8,8,8s8-3.6,8-8v-32c0-8.8,7.2-16,16-16s16,7.2,16,16v32c0,4.4,3.6,8,8,8s8-3.6,8-8v-32
		c0-8.8,7.2-16,16-16s16,7.2,16,16v32c0,4.4,3.6,8,8,8s8-3.6,8-8v-8c0-8.8,7.2-16,16-16s16,7.2,16,16v120c0,4.4,3.6,8,8,8s8-3.6,8-8
		V368C496,350.3,481.7,336,464,336z M256.9,448h-64.3c1.4-10.7,1-21.5-1.4-32h48.1L256.9,448z M384,316.5c-9.8-6-22.2-6-32,0V264
		c0-17.7-14.3-32-32-32s-32,14.3-32,32v106.2l-5-8.8c-11-19.1-35.5-25.7-54.6-14.6l-13.9,8c-3.8,2.2-5.1,7-3,10.8l19,34.5h-44.6
		c-2.1-4.9-4.6-9.5-7.6-13.9l-7.1-10.5c5-8.6,16.5-28.5,25.4-43.9c4.3-7.3,5.5-16.1,3.3-24.3c-2.3-8.5-7.9-15.6-15.6-19.9
		c-15.1-8.7-34.3-3.5-43,11.5c0,0-0.1,0.1-0.1,0.1l-13,22.7V80h256V316.5z M384,64H128v-8c0-13.2,10.8-24,24-24h208
		c13.2,0,24,10.8,24,24V64z"/>
	<path class="st0" d="M368,208v-88c0-13.3-10.7-24-24-24H168c-13.3,0-24,10.7-24,24v88c0,13.3,10.7,24,24,24h176
		C357.3,232,368,221.3,368,208z M168,216c-4.4,0-8-3.6-8-8v-88c0-4.4,3.6-8,8-8h176c4.4,0,8,3.6,8,8v88c0,4.4-3.6,8-8,8H168z"/>
	<path class="st0" d="M200,128h-16c-4.4,0-8,3.6-8,8v56c0,4.4,3.6,8,8,8s8-3.6,8-8v-16h8c13.3,0,24-10.7,24-24S213.3,128,200,128z
		 M200,160h-8v-16h8c4.4,0,8,3.6,8,8S204.4,160,200,160z"/>
	<path class="st0" d="M263.4,132.8c-1.7-4.1-6.4-5.9-10.5-4.2c-1.9,0.8-3.4,2.3-4.2,4.2l-24,56c-1.8,4,0,8.8,4.1,10.6
		c4,1.8,8.8,0,10.6-4.1c0-0.1,0.1-0.1,0.1-0.2l4.8-11.2h23.7l4.8,11.2c1.7,4.1,6.4,6,10.4,4.3c4.1-1.7,6-6.4,4.3-10.4
		c0-0.1-0.1-0.1-0.1-0.2L263.4,132.8z M251,168l5-11.7l5,11.7H251z"/>
	<path class="st0" d="M329.6,131.2L312,154.7l-17.6-23.5c-2.7-3.5-7.7-4.2-11.2-1.6c-3.5,2.7-4.2,7.7-1.6,11.2l22.4,29.9V192
		c0,4.4,3.6,8,8,8s8-3.6,8-8v-21.3l22.4-29.9c2.7-3.5,1.9-8.5-1.6-11.2C337.3,126.9,332.3,127.7,329.6,131.2
		C329.6,131.2,329.6,131.2,329.6,131.2z"/>
</g>
</svg>
