<?xml version="1.0" encoding="utf-8"?>
<!-- Generator: Adobe Illustrator 24.0.1, SVG Export Plug-In . SVG Version: 6.00 Build 0)  -->
<svg version="1.1" id="Layer_1" xmlns="http://www.w3.org/2000/svg" xmlns:xlink="http://www.w3.org/1999/xlink" x="0px" y="0px"
	 viewBox="0 0 64 64" style="enable-background:new 0 0 64 64;" xml:space="preserve">
<style type="text/css">
	.st0{fill:#FFFFFF;}
</style>
<path class="st0" d="M10,54.8V61c0,0.6,0.4,1,1,1h16.1c0.6,0,1-0.4,1-1v-6.2c0-0.6-0.4-1-1-1h-0.7v-8.9c-0.3-5.7-4.4-7.7-6.8-8.3
	c-1.4-0.4-2.7-1.3-3.6-2.6l-1.8-2.6c-0.6-0.9-1.6-1.5-2.6-1.5v-9.3c0-1.3-0.5-2.4-1.4-3.3s-2.1-1.4-3.3-1.4c-2.6,0-4.7,2.1-4.7,4.7
	v14.3c0,4.1,1.3,8.1,3.6,11.4l5.4,7.7H11C10.5,53.8,10,54.2,10,54.8z M26.1,60H12v-4.2h1.2c0,0,0,0,0,0h12.1c0,0,0,0,0,0h0.7
	L26.1,60L26.1,60z M7.5,45c-2.1-3-3.3-6.6-3.3-10.3V20.4c0-1.5,1.2-2.7,2.7-2.7c0.7,0,1.4,0.3,1.9,0.8c0.5,0.5,0.8,1.2,0.8,1.9v9.8
	c-0.1,0-0.1,0.1-0.2,0.1c-1.6,1-2.1,3.2-1.1,4.8l1.5,2.4c1.9,3,3,4.9,3.1,5.2c0.2,0.4,0.5,0.6,0.9,0.6c0.6,0,1-0.4,1-1
	c0-0.2-1.1-2.2-3.4-5.9L10,34.1c-0.4-0.7-0.2-1.7,0.5-2.1c0.1-0.1,0.3-0.2,0.4-0.2c0,0,0,0,0,0c0.2,0,0.3-0.1,0.4-0.1
	c0.5,0,1,0.3,1.3,0.7l1.8,2.6c1.1,1.7,2.8,2.9,4.7,3.4c2.3,0.6,5.1,2.3,5.3,6.5v8.9H13.8L7.5,45L7.5,45z"/>
<path class="st0" d="M61.7,34.7V20.4c0-2.6-2.1-4.7-4.7-4.7c-1.2,0-2.4,0.5-3.3,1.4s-1.4,2.1-1.4,3.3v9.3c-1.1,0.1-2,0.7-2.6,1.5
	l-1.8,2.6c-0.9,1.3-2.1,2.2-3.6,2.6c-2.4,0.7-6.5,2.6-6.8,8.4v8.9h-0.7c-0.6,0-1,0.4-1,1V61c0,0.6,0.4,1,1,1H53c0.6,0,1-0.4,1-1
	v-6.2c0-0.6-0.4-1-1-1h-0.3l5.4-7.7C60.5,42.8,61.7,38.8,61.7,34.7L61.7,34.7z M52,60H37.9v-4.2h0.7c0,0,0,0,0,0h12.1c0,0,0,0,0,0
	H52L52,60L52,60z M50.2,53.8H39.6V45c0.2-4.2,3-5.9,5.3-6.5c1.9-0.5,3.5-1.7,4.7-3.4l1.8-2.6c0.4-0.5,1.1-0.8,1.7-0.6c0,0,0,0,0,0
	c0.2,0.1,0.3,0.1,0.4,0.2c0.7,0.5,0.9,1.4,0.5,2.1l-1.5,2.4c-2.2,3.7-3.4,5.6-3.4,5.9c0,0.6,0.4,1,1,1c0.4,0,0.8-0.2,0.9-0.6
	c0.2-0.3,1.3-2.2,3.1-5.2l1.5-2.4c1-1.6,0.5-3.8-1.1-4.9c-0.1,0-0.1-0.1-0.2-0.1v-9.8c0-0.7,0.3-1.4,0.8-1.9
	c0.5-0.5,1.2-0.8,1.9-0.8c1.5,0,2.7,1.2,2.7,2.7v14.3c0,3.7-1.1,7.3-3.3,10.3L50.2,53.8L50.2,53.8z"/>
<path class="st0" d="M30.5,19.9c-0.1-0.4-0.5-0.6-0.8-0.7l-4.9-0.5l-2-4.5c-0.2-0.4-0.5-0.6-0.9-0.6s-0.8,0.2-0.9,0.6l-2,4.5
	l-4.9,0.5c-0.4,0-0.7,0.3-0.8,0.7c-0.1,0.4,0,0.8,0.3,1.1l3.6,3.3l-1,4.8c-0.1,0.4,0.1,0.8,0.4,1c0.2,0.1,0.4,0.2,0.6,0.2
	c0.2,0,0.3,0,0.5-0.1l4.2-2.4l4.2,2.4c0.3,0.2,0.8,0.2,1.1-0.1s0.5-0.6,0.4-1l-1-4.8l3.6-3.3C30.5,20.7,30.6,20.3,30.5,19.9
	L30.5,19.9z M24.8,23.2c-0.3,0.2-0.4,0.6-0.3,0.9l0.7,3.2l-2.8-1.6c-0.2-0.1-0.3-0.1-0.5-0.1s-0.3,0-0.5,0.1l-2.8,1.6l0.7-3.2
	c0.1-0.3,0-0.7-0.3-0.9L16.5,21l3.2-0.3c0.4,0,0.7-0.3,0.8-0.6l1.3-3l1.3,3c0.1,0.3,0.5,0.5,0.8,0.6l3.2,0.3L24.8,23.2L24.8,23.2z"
	/>
<path class="st0" d="M50.8,19.9c-0.1-0.4-0.5-0.6-0.8-0.7l-4.9-0.5l-2-4.5c-0.2-0.4-0.5-0.6-0.9-0.6s-0.8,0.2-0.9,0.6l-2,4.5
	l-4.9,0.5c-0.4,0-0.7,0.3-0.8,0.7c-0.1,0.4,0,0.8,0.3,1.1l3.6,3.3l-1,4.8c-0.1,0.4,0.1,0.8,0.4,1c0.3,0.2,0.7,0.3,1.1,0.1l4.2-2.4
	l4.2,2.4c0.2,0.1,0.3,0.1,0.5,0.1c0.2,0,0.4-0.1,0.6-0.2c0.3-0.2,0.5-0.6,0.4-1l-1-4.8l3.6-3.3C50.8,20.7,50.9,20.3,50.8,19.9
	L50.8,19.9z M45.1,23.2c-0.3,0.2-0.4,0.6-0.3,0.9l0.7,3.2l-2.8-1.6c-0.3-0.2-0.7-0.2-1,0l-2.8,1.6l0.7-3.2c0.1-0.3,0-0.7-0.3-0.9
	L36.8,21l3.2-0.3c0.4,0,0.7-0.3,0.8-0.6l1.3-3l1.3,3c0.1,0.3,0.5,0.5,0.8,0.6l3.2,0.3L45.1,23.2L45.1,23.2z"/>
<path class="st0" d="M40.6,8.3c-0.1-0.4-0.5-0.6-0.8-0.7l-4.9-0.5l-2-4.5C32.8,2.2,32.4,2,32,2s-0.8,0.2-0.9,0.6l-2,4.5l-4.9,0.5
	c-0.4,0-0.7,0.3-0.8,0.7c-0.1,0.4,0,0.8,0.3,1.1l3.6,3.3l-1,4.8c-0.1,0.4,0.1,0.8,0.4,1c0.3,0.2,0.7,0.3,1.1,0.1L32,16l4.2,2.4
	c0.2,0.1,0.3,0.1,0.5,0.1c0.2,0,0.4-0.1,0.6-0.2c0.3-0.2,0.5-0.6,0.4-1l-1-4.8l3.6-3.3C40.6,9,40.7,8.6,40.6,8.3L40.6,8.3z
	 M34.9,11.5c-0.3,0.2-0.4,0.6-0.3,0.9l0.7,3.2L32.5,14c-0.2-0.1-0.3-0.1-0.5-0.1s-0.3,0-0.5,0.1l-2.8,1.6l0.7-3.2
	c0.1-0.3,0-0.7-0.3-0.9l-2.4-2.2L29.9,9c0.4,0,0.7-0.3,0.8-0.6l1.3-3l1.3,3c0.1,0.3,0.5,0.5,0.8,0.6l3.2,0.3L34.9,11.5z"/>
</svg>
