<?xml version="1.0" encoding="utf-8"?>
<!-- Generator: Adobe Illustrator 24.0.1, SVG Export Plug-In . SVG Version: 6.00 Build 0)  -->
<svg version="1.1" id="Capa_1" xmlns="http://www.w3.org/2000/svg" xmlns:xlink="http://www.w3.org/1999/xlink" x="0px" y="0px"
	 viewBox="0 0 479.8 479.8" style="enable-background:new 0 0 479.8 479.8;" xml:space="preserve">
<style type="text/css">
	.st0{fill:#878787;}
	.st1{fill:#763F98;}
	.st2{font-family:'MyriadPro-Regular';}
	.st3{font-size:109px;}
</style>
<g>
	<path class="st0" d="M299.2,291.9c0.2-0.6,0.4-1.3,0.4-2c0-3.2-2.6-5.8-5.8-5.8s-0.1,0-0.2,0l2.6-15.3c2.5-12.6,2.6-25.3,0.7-37.7
		c-6.4,7.6-15.7,12-25.7,12s-5.8-0.4-8.6-1.1c-6-1.6-11.2-4.8-15.3-9.1l30.3,56.2c-11,5.5-19.3,14.1-24.2,20.5
		c-4.9-6.2-12.4-10.3-20.8-10.3H205c-10.8,0-20.1,6.5-24.2,15.7c-8.1-2.8-16.9-2.8-24.9,0c-4.2-9.2-13.5-15.7-24.2-15.7h-27.6
		c-8.5,0-16,4.1-20.9,10.3c-5-6.4-13.2-15-24.2-20.5l39.4-73.2c5.6-10.3,18-14,27.9-8.3c26.3,15.1,58.1,15.1,84.3,0
		c9.9-5.7,22.3-2,27.9,8.3l0.4,0.7c-0.1-0.6-0.5-1.1-0.6-1.8l-4.5-27.9c-20.9-15.8-35.1-36.1-41.5-58.5c-3.2-0.4-6.3-0.8-9.4-0.8
		h-28.7c-30.5,0-64.9,20.7-89.1,48.7c-22,25.4-31,59.4-24.6,92.4l2.6,15.4c-0.1,0-0.2,0-0.4,0c-3.1,0-5.5,2.5-5.5,5.5
		s0.1,1.4,0.4,2.1c-7.5,4.4-13.1,12-15.9,22.3c-3,11.4-2.2,24.7,2.2,37.4c7.1,20.5,22.4,35.4,38.8,38.2c20.4,44.3,58.2,90,105.7,90
		s85.3-45.6,105.7-89.9c16.1-2.6,31.6-17.6,38.8-38.3c8.8-25.3,2.7-50-13.6-59.7L299.2,291.9z M204.9,311.5h27.6
		c8.1,0,14.6,6.6,14.6,14.6s-6.6,14.6-14.6,14.6h-27.6c-5.3,0-9.8-3-12.4-7.3c5.1-1.2,4.7-7.1,2.4-9.5s-2.4-2-3.6-3
		c2.1-5.6,7.3-9.6,13.6-9.6V311.5z M103.8,311.5h27.6c6.3,0,11.5,4,13.6,9.6c-1.2,1-2.5,1.8-3.6,3c-2.3,2.3-3.1,7.9,2.4,9.5
		c-2.6,4.3-7,7.3-12.4,7.3h-27.6c-8.1,0-14.6-6.6-14.6-14.6c0-8.1,6.6-14.6,14.6-14.6L103.8,311.5z M297.6,346.3
		c-6.4,18.4-19.3,28-28.9,28c-3.3,0.4-6.2,1.8-7.5,4.8c-17.9,41-51.7,84.7-93,84.7s-75.1-43.8-93-84.7c-1.3-2.9-4.6-4.8-7.8-4.8
		c-10.8,0-23.1-12-28.7-28c-3.4-9.6-4-19.9-1.9-28.1c1.1-4.2,4-11.5,10.8-13.9c0.7-0.2,1.8-0.4,3-0.5c2.1-0.2,3.9-1.2,5.1-2.7
		c11.9,7,19.9,18.7,21.7,21.6c-0.1,1.1-0.3,2.2-0.3,3.4c0,14.7,11.9,26.6,26.7,26.6h27.6c14.4,0,26-11.4,26.6-25.7
		c6.5-2.8,13.8-2.8,20.3,0c0.5,14.2,12.2,25.7,26.6,25.7h27.6c14.7,0,26.6-11.9,26.6-26.6s-0.2-2.3-0.3-3.4
		c1.9-3,9.8-14.6,21.7-21.6c1.3,1.5,3.1,2.5,5.2,2.7c1.1,0.1,2.2,0.2,3,0.5c11.3,3.9,15.4,23.2,8.9,41.9L297.6,346.3z"/>
	<path class="st1" d="M332.1,0C261.5,0,204,45.4,204,101.3s16.1,57.4,44.3,76.6l5.6,34.4c1.1,6.9,6.2,12.5,12.9,14.2
		c1.5,0.4,3,0.6,4.5,0.6c5.4,0,10.5-2.4,13.8-6.7l16.6-20.9c10.1,1.9,20.3,2.9,30.3,2.9c70.6,0,128.1-45.4,128.1-101.3
		S402.6-0.2,332-0.2L332.1,0z M332.1,186.6c-10.5,0-21.2-1.2-31.8-3.6l-4.9-1.1l-22.8,28.7c-0.3,0.4-0.8,0.6-1.3,0.6h-0.4
		c-0.6-0.2-1.1-0.8-1.2-1.4l-6.7-41.4l-3-1.9c-25.4-16.3-39.9-40.1-39.9-65.2c0-47,50.3-85.3,112.1-85.3s112.1,38.3,112.1,85.3
		s-50.3,85.3-112.1,85.3H332.1z"/>
</g>
<text transform="matrix(1 0 0 1 280 134)" class="st1 st2 st3">HI</text>
</svg>
