<?xml version="1.0" encoding="utf-8"?>
<!-- Generator: Adobe Illustrator 24.0.1, SVG Export Plug-In . SVG Version: 6.00 Build 0)  -->
<svg version="1.1" id="Capa_1" xmlns="http://www.w3.org/2000/svg" xmlns:xlink="http://www.w3.org/1999/xlink" x="0px" y="0px"
	 viewBox="0 0 479.8 479.8" style="enable-background:new 0 0 479.8 479.8;" xml:space="preserve">
<style type="text/css">
	.st0{fill:#4F4D4E;}
	.st1{fill:#763F98;}
</style>
<g>
	<path class="st0" d="M299.2,291.9c0.2-0.6,0.4-1.3,0.4-2c0-3.2-2.6-5.8-5.8-5.8c-0.1,0-0.1,0-0.2,0l2.6-15.3
		c2.5-12.6,2.6-25.3,0.7-37.7c-6.4,7.6-15.7,12-25.7,12c-2.9,0-5.8-0.4-8.6-1.1c-6-1.6-11.2-4.8-15.3-9.1l30.3,56.2
		c-11,5.5-19.3,14.1-24.2,20.5c-4.9-6.2-12.4-10.3-20.8-10.3h-27.6c-10.8,0-20.1,6.5-24.2,15.7c-8.1-2.8-16.9-2.8-24.9,0
		c-4.2-9.2-13.5-15.7-24.2-15.7h-27.6c-8.5,0-16,4.1-20.9,10.3c-5-6.4-13.2-15-24.2-20.5L98.2,216c5.6-10.3,18-14,27.9-8.3
		c26.3,15.1,58.1,15.1,84.3,0c9.9-5.7,22.3-2,27.9,8.3l0.4,0.7c-0.1-0.6-0.5-1.1-0.6-1.8l-4.5-27.9c-20.9-15.8-35.1-36.1-41.5-58.5
		c-3.2-0.4-6.3-0.8-9.4-0.8h-28.7c-30.5,0-64.9,20.7-89.1,48.7c-22,25.4-31,59.4-24.6,92.4l2.6,15.4c-0.1,0-0.2,0-0.4,0
		c-3.1,0-5.5,2.5-5.5,5.5c0,0.7,0.1,1.4,0.4,2.1c-7.5,4.4-13.1,12-15.9,22.3c-3,11.4-2.2,24.7,2.2,37.4
		c7.1,20.5,22.4,35.4,38.8,38.2c20.4,44.3,58.2,90,105.7,90s85.3-45.6,105.7-89.9c16.1-2.6,31.6-17.6,38.8-38.3
		C321.5,326.2,315.4,301.5,299.2,291.9z M204.9,311.5h27.6c8.1,0,14.6,6.6,14.6,14.6c0,8.1-6.6,14.6-14.6,14.6h-27.6
		c-5.3,0-9.8-3-12.4-7.3c5.1-1.2,4.7-7.1,2.4-9.5c-1.1-1.1-2.4-2-3.6-3C193.4,315.5,198.6,311.5,204.9,311.5z M103.8,311.5h27.6
		c6.3,0,11.5,4,13.6,9.6c-1.2,1-2.5,1.8-3.6,3c-2.3,2.3-3.1,7.9,2.4,9.5c-2.6,4.3-7,7.3-12.4,7.3h-27.6c-8.1,0-14.6-6.6-14.6-14.6
		C89.2,318,95.8,311.5,103.8,311.5z M297.6,346.3c-6.4,18.4-19.3,28-28.9,28c-3.3,0.4-6.2,1.8-7.5,4.8c-17.9,41-51.7,84.7-93,84.7
		c-41.3,0-75.1-43.8-93-84.7c-1.3-2.9-4.6-4.8-7.8-4.8c-10.8,0-23.1-12-28.7-28c-3.4-9.6-4-19.9-1.9-28.1c1.1-4.2,4-11.5,10.8-13.9
		c0.7-0.3,1.8-0.4,3-0.5c2.1-0.2,3.9-1.2,5.1-2.7c11.9,7,19.9,18.7,21.7,21.6c-0.1,1.1-0.3,2.2-0.3,3.4c0,14.7,11.9,26.6,26.7,26.6
		h27.6c14.4,0,26-11.4,26.6-25.7c6.5-2.8,13.8-2.8,20.3,0c0.5,14.2,12.2,25.7,26.6,25.7h27.6c14.7,0,26.6-11.9,26.6-26.6
		c0-1.2-0.2-2.3-0.3-3.4c1.9-3,9.8-14.6,21.7-21.6c1.3,1.5,3.1,2.5,5.2,2.7c1.1,0.1,2.2,0.2,3,0.5
		C300,308.3,304.1,327.5,297.6,346.3z"/>
	<path class="st1" d="M332.1,0c-70.6,0-128.1,45.4-128.1,101.3c0,29.6,16.1,57.4,44.3,76.6l5.6,34.4c1.1,6.9,6.2,12.5,12.9,14.2
		c1.5,0.4,3,0.6,4.5,0.6c5.4,0,10.5-2.4,13.8-6.7l16.6-20.9c10.1,1.9,20.3,2.9,30.3,2.9c70.6,0,128.1-45.4,128.1-101.3
		C460.2,45.4,402.7,0,332.1,0z M332.1,186.6c-10.5,0-21.2-1.2-31.8-3.6l-4.9-1.1l-22.8,28.7c-0.3,0.4-0.8,0.6-1.3,0.6l-0.4-0.1
		c-0.6-0.2-1.1-0.7-1.2-1.3l-6.7-41.4l-3-1.9c-25.4-16.3-39.9-40.1-39.9-65.2c0-47,50.3-85.3,112.1-85.3
		c61.8,0,112.1,38.3,112.1,85.3C444.2,148.3,393.9,186.6,332.1,186.6z"/>
</g>
</svg>
